<?xml version="1.0"?><svg version="1.2" baseProfile="tiny-ps" viewBox="0 0 300 300" xmlns="http://www.w3.org/2000/svg" xmlns:xlink="http://www.w3.org/1999/xlink"><title>Arian Intl</title><g><g fill="#0a2a40" transform="matrix(.1 0 0 -.1 0 300)"><path d="M1445 2985c-56-19-934-289-1020-314-38-11-89-25-113-31l-43-11 4-557 4-557 21-97c59-276 179-530 363-768 169-219 408-413 727-590l114-63 55 27c73 35 276 163 378 236 265 192 481 441 614 706l51 102 40 119 40 120 21 114 22 114 4 547 4 547-73 21c-40 12-311 93-603 182-291 88-539 162-550 164s-38-3-60-11zm420-331c176-51 392-115 480-141l160-49 5-249c3-138 2-338-2-445l-6-195-17-100-17-100-35-105c-40-121-88-230-100-230-9 0-81 148-479 987l-219 463h-266l-33-72c-18-40-157-334-308-653s-291-616-312-659l-37-79-14 20c-42 60-118 280-147 426l-22 112-1 439v439l70 19c39 10 239 70 445 133 206 62 400 120 430 128l55 15 25-6c14-2 169-47 345-98zm-345-586c0-5 49-112 109-236 59-125 111-237 115-249l7-23h-250c-138 0-251 2-251 5 0 8 232 498 243 512l9 13 9-6c5-3 9-10 9-16zm420-900c30-62 87-183 127-268l74-154-128-126-128-125-122-85c-145-100-230-150-259-150h-21l-82 50c-188 114-389 275-491 392l-41 48 82 172c45 95 101 215 125 266l43 92h768l53-112z"/></g></g></svg>