<?xml version="1.0"?><svg version="1.2" baseProfile="tiny-ps" viewBox="0 0 300 300" xmlns="http://www.w3.org/2000/svg" xmlns:xlink="http://www.w3.org/1999/xlink"><title>Arian Sports</title><g><g fill="#cf3034" transform="matrix(.1 0 0 -.1 0 300)"><path d="M1417 2970c-37-32-54-56-327-475-449-687-764-1186-782-1235-5-16-8-41-6-56l3-27 28-21 28-21 379-5 378-5 9-8 8-9 5-191 5-192 49 60c26 33 119 137 206 230 87 94 193 213 236 264l79 95v83l-14 26-14 26-39 15-38 16h-371l-6 17-6 16 21 38c12 21 76 119 141 219l118 180 15-18c8-9 142-207 298-439l283-423h567l20 20 20 20-13 33c-24 57-645 1018-926 1432l-176 260-51 53-50 52h-43l-34-30zM266 432c-3-5-8-26-12-48l-6-39 158 3 157 3 10-10 10-10-12-15-12-14-147-4-147-3-35-20-35-21-18-49c-10-28-22-70-27-94l-8-45 8-21 8-22 29-12 28-11 244 2 245 3 38 150c38 154 45 213 28 245l-10 18-31 11-32 11H271l-5-8zm276-232c-2-14-11-41-20-60l-17-35-58-3-57-3-6 14-5 15 11 41 11 40 17 11 17 10 55-3 55-2-3-25zm306 211 4-28-46-183C781 100 760 14 760 9V0h240l-6 28-6 27 32 125 31 125 26 23 26 24 88-4 88-3 6 33c3 18 9 40 11 47l6 14H844l4-28zm454-183c-29-117-52-216-52-220V0h236l-4 33-3 32 45 175c25 96 46 181 46 188v12h-216l-52-212zm349 168c-6-25-11-46-11-48s75-2 166 0l166 3-4-23-3-23-157-5-157-5-28-21-28-20-18-37c-11-21-24-67-30-102l-11-65 22-23 23-22 259-3c143-1 260 0 260 3s18 78 41 167l41 161-6 32-6 32-21 19-21 19-233 3-232 3-12-45zm289-174c0-24-31-106-42-113-7-5-34-9-59-9h-47l-10 13-10 12 14 47 14 47 18 4c9 3 41 5 70 6l52 1v-8zm303 190 5-27-48-193-47-193 110 3 111 3 40 160c23 88 45 166 49 173l8 12h169v-17c-1-10-18-89-39-175L2563 0h237v81l30 119c34 136 35 150 15 190l-15 28-32 11-33 10h-527l5-27z"/></g><g fill="#324860" transform="matrix(.1 0 0 -.1 0 300)"><path d="M1681 2278c-90-138-164-256-165-262 0-6 131-208 293-449l294-437h567l20 20 20 20-13 33c-14 33-437 694-703 1099l-149 226-164-250zM266 432c-3-5-8-26-12-48l-6-39 158 3 157 3 10-10 10-10-12-15-12-14-147-4-147-3-35-20-35-21-18-49c-10-28-22-70-27-94l-8-45 8-21 8-22 29-12 28-11 244 2 245 3 38 150c38 154 45 213 28 245l-10 18-31 11-32 11H271l-5-8zm276-232c-2-14-11-41-20-60l-17-35-58-3-57-3-6 14-5 15 11 41 11 40 17 11 17 10 55-3 55-2-3-25zm306 211 4-28-46-183C781 100 760 14 760 9V0h240l-6 28-6 27 32 125 31 125 26 23 26 24 88-4 88-3 6 33c3 18 9 40 11 47l6 14H844l4-28zm454-183c-29-117-52-216-52-220V0h236l-4 33-3 32 45 175c25 96 46 181 46 188v12h-216l-52-212zm349 168c-6-25-11-46-11-48s75-2 166 0l166 3-4-23-3-23-157-5-157-5-28-21-28-20-18-37c-11-21-24-67-30-102l-11-65 22-23 23-22 259-3c143-1 260 0 260 3s18 78 41 167l41 161-6 32-6 32-21 19-21 19-233 3-232 3-12-45zm289-174c0-24-31-106-42-113-7-5-34-9-59-9h-47l-10 13-10 12 14 47 14 47 18 4c9 3 41 5 70 6l52 1v-8zm303 190 5-27-48-193-47-193 110 3 111 3 40 160c23 88 45 166 49 173l8 12h169v-17c-1-10-18-89-39-175L2563 0h237v81l30 119c34 136 35 150 15 190l-15 28-32 11-33 10h-527l5-27z"/></g></g></svg>