<?xml version="1.0" encoding="UTF-8"?>
<!DOCTYPE svg PUBLIC "-//W3C//DTD SVG 1.1//EN" "http://www.w3.org/Graphics/SVG/1.1/DTD/svg11.dtd">
<!-- Creator: CorelDRAW 2021 (64-Bit) -->
<svg xmlns="http://www.w3.org/2000/svg" xml:space="preserve" width="60.519mm" height="60.519mm" version="1.1" style="shape-rendering:geometricPrecision; text-rendering:geometricPrecision; image-rendering:optimizeQuality; fill-rule:evenodd; clip-rule:evenodd"
viewBox="0 0 6051.9 6051.9"
 xmlns:xlink="http://www.w3.org/1999/xlink"
 xmlns:xodm="http://www.corel.com/coreldraw/odm/2003">
 <defs>
  <style type="text/css">
   <![CDATA[
    .str0 {stroke:#373435;stroke-width:7.62;stroke-linecap:round;stroke-linejoin:round;stroke-miterlimit:22.9256}
    .fil1 {fill:none}
    .fil0 {fill:#0A2B41}
   ]]>
  </style>
 </defs>
 <g id="Layer_x0020_1">
  <metadata id="CorelCorpID_0Corel-Layer"/>
  <path class="fil0" d="M1742.96 4551.02l508.81 -1070.91 1552.22 -3.67 380.87 798.03c38.22,82.84 99.24,191.41 127.06,276.55 -180.1,203.77 -361.29,388.48 -583.99,558.47 -87.7,66.94 -605.36,443.83 -696.7,437.55 -91.74,-6.3 -605.68,-368.82 -700.77,-439.79 -192.95,-143.98 -434.81,-376.95 -587.5,-556.23zm1253.79 -2676.74c8.81,-15.69 9.61,-16.93 21.18,-34.85l16.86 -22.58c48.07,168.93 385.82,795.53 503.25,1096.84l-1034.32 -1.25 493.03 -1038.16zm-2011.4 -794.46c356.19,-79.07 1939.49,-595.32 2040.71,-594.17 35.03,0.39 1978.1,567.22 2037.76,600.34 -3.19,688.07 74.11,1708.2 -124.31,2326.58 -39.64,123.56 -169.67,500.45 -239.76,569.72 -115.26,-246.65 -232.68,-485.55 -350.58,-732.21l-1056.72 -2226.17 -530.44 -1.93c-117.8,250.53 -228.37,485.73 -350.17,743.35l-881.1 1853.49c-51.38,112.47 -107.52,270.9 -178.55,363.06 -85.04,-116.81 -196.47,-433.9 -241.27,-582.05 -64.03,-211.83 -109.09,-442.75 -121.44,-685.62 -26.6,-523.12 -3.47,-1104.76 -4.13,-1634.39zm-449.09 -341.17c-23.07,624.71 -7.43,1313.92 0.93,1942.69 3.89,292.67 54.51,579.26 134.77,836.68 157.99,506.68 371.34,874.6 683.8,1275.86 37.14,47.71 76.56,87.47 113.88,133.1 40.1,49.02 71.64,85.81 116.31,131.13 205.1,208.12 564.42,496.76 811.04,653.16 83.81,53.15 569.75,345.94 630.13,345.75 112.05,-0.36 753.63,-426.36 900.07,-535.34 466.69,-347.33 876.04,-774.38 1159.57,-1294.06 623.05,-1141.99 368.47,-2078.99 426.19,-3484.59 -331.2,-80.5 -2420.68,-733.28 -2488.53,-737.85 -108.33,-7.3 -2219.45,699.11 -2488.16,733.47z"/>
  <rect class="fil1 str0" x="-5.12" y="5.12" width="6051.9" height="6051.9"/>
 </g>
</svg>
