<?xml version="1.0" encoding="UTF-8"?>
<!DOCTYPE svg PUBLIC "-//W3C//DTD SVG 1.1//EN" "http://www.w3.org/Graphics/SVG/1.1/DTD/svg11.dtd">
<!-- Creator: CorelDRAW 2021 (64-Bit) -->
<svg xmlns="http://www.w3.org/2000/svg" xml:space="preserve" width="185.717mm" height="185.717mm" version="1.1" style="shape-rendering:geometricPrecision; text-rendering:geometricPrecision; image-rendering:optimizeQuality; fill-rule:evenodd; clip-rule:evenodd"
viewBox="0 0 18571.7 18571.7"
 xmlns:xlink="http://www.w3.org/1999/xlink"
 xmlns:xodm="http://www.corel.com/coreldraw/odm/2003">
 <defs>
  <style type="text/css">
   <![CDATA[
    .str0 {stroke:#373435;stroke-width:7.62;stroke-linecap:round;stroke-linejoin:round;stroke-miterlimit:22.9256}
    .fil3 {fill:none}
    .fil1 {fill:#324961}
    .fil2 {fill:#CF3034}
    .fil0 {fill:#324961;fill-rule:nonzero}
   ]]>
  </style>
 </defs>
 <g id="Layer_x0020_1">
  <metadata id="CorelCorpID_0Corel-Layer"/>
  <path class="fil0" d="M13846.5 15861.01c15.34,30.86 30.88,61.75 30.88,107.95 15.33,30.86 15.33,76.8 15.33,123 15.54,30.87 0,92.34 0,153.87 -15.33,61.75 -30.87,138.55 -46.21,230.69l-523.09 2092.79 1369.49 0 476.89 -1954.26c15.54,-76.79 46.13,-138.53 92.34,-169.2 46.2,-46.13 107.67,-61.47 184.47,-61.47l723.39 0c77.07,0 138.54,15.34 169.2,61.47 15.27,30.67 30.88,92.41 0,169.2l-476.89 1954.26 1492.42 0c0,-30.86 -15.33,-77.08 -30.87,-107.95 0,-30.86 -15.33,-76.8 -15.33,-122.93 0,-46.21 0,-92.41 15.33,-153.87 0,-76.8 15.54,-153.89 46.42,-246.23l276.88 -1092.59c45.92,-199.81 61.46,-384.57 30.59,-523.11 -30.59,-153.87 -92.13,-261.26 -200.01,-338.35 -123.01,-77.07 -276.88,-123.27 -492.23,-123.27l-1107.94 0c-184.47,0 -569.23,30.86 -646.31,77.07l15.55 -77.07 -1400.3 0z"/>
  <path class="fil0" d="M7707.4 18569.25l1507.82 0c-15.33,-30.88 -30.87,-77.02 -30.87,-107.89 -15.33,-30.86 -15.33,-76.8 -30.66,-123 0,-46.21 0,-92.34 15.33,-153.87 0,-76.8 15.33,-153.89 46.2,-246.23l523.31 -2077.25 -1369.49 0 -661.64 2708.24z"/>
  <path class="fil0" d="M5199.38 15861.01c15.33,30.86 30.87,61.75 30.87,107.95 15.33,30.86 15.33,76.8 15.33,123 15.26,30.87 0,92.34 0,153.87 -15.33,61.75 -30.87,138.55 -46.2,230.69l-369.22 1461.81 -153.88 630.98 1507.75 0c-15.33,-30.86 -15.33,-77.08 -30.87,-107.95 -15.05,-30.86 -15.05,-76.8 -15.05,-122.93l0 -153.87c15.05,-76.8 30.59,-153.89 45.92,-246.23l276.88 -1092.59c30.88,-92.14 46.42,-168.93 77.01,-215.35 46.21,-61.53 76.87,-107.47 138.55,-153.87 46.2,-30.67 123,-45.94 215.62,-61.55 76.8,-15.25 199.8,-30.59 322.81,-30.59l323.29 0c61.47,15.34 138.27,15.34 199.8,30.59 30.88,15.61 92.34,30.88 107.88,30.88l46 15.32 153.81 -600.16 -722.83 0 -261.83 0c-399.82,0 -415.43,184.75 -353.89,0l-1507.75 0z"/>
  <path class="fil0" d="M1645.02 15861.01l-153.81 600.16c61.47,-30.59 15.27,0 61.47,-15.32 61.75,-15.27 123.21,-30.88 184.75,-46.13 61.47,0 123,-15.34 215.34,-15.34l1415.63 0c61.74,0 107.67,15.34 138.54,30.59 30.67,0 46.21,30.88 46.21,46.2 15.33,30.89 15.33,61.75 0,107.69 -15.54,30.87 -30.88,77.07 -46.21,92.33 -15.26,30.66 -46.13,46.2 -76.8,61.54 -46.41,15.54 -92.34,15.54 -154.08,15.54l-1292.41 0c-153.88,0 -292.42,15.33 -400.1,45.92 -107.67,30.88 -200.01,77.09 -276.88,153.89 -77,61.52 -138.54,138.54 -184.68,246.21 -46.2,107.95 -92.41,230.96 -123,369.5l-61.54 199.8c-46.41,184.74 -61.46,338.56 -46.41,461.56 30.87,123.28 77.08,200.3 184.75,261.82 92.34,61.48 246.22,92.34 446.3,92.34l969.32 0 292.14 0c77.08,0 153.88,-15.54 215.42,-30.86 61.74,-15.54 138.75,-61.48 153.87,-61.48l-30.66 92.34 1215.61 0 430.69 -1692.71c61.54,-246.21 77.08,-446.02 61.54,-584.63 -30.88,-153.8 -92.41,-261.47 -215.42,-338.55 -123.21,-61.55 -276.81,-92.41 -507.48,-92.41l-2462.1 0zm1738.71 1308.02l-92.34 384.76c-30.66,92.34 -46.21,153.87 -61.54,215.35 -15.54,46.2 -46.2,76.78 -77.01,107.66 -15.12,30.66 -45.99,46.21 -92.13,46.21 -46.2,15.32 -92.41,15.32 -153.87,15.32l-323.02 0c-61.53,0 -123,0 -153.87,-15.32 -46.21,-15.55 -77.08,-30.67 -77.08,-61.53 -15.33,-30.82 -15.33,-92.34 0,-153.82l77.08 -307.96c15.26,-61.54 45.92,-107.46 61.46,-138.34 30.88,-46.19 76.8,-61.47 107.67,-77.07 46.21,0 107.68,-15.26 169.21,-15.26l615.44 0z"/>
  <path class="fil0" d="M10277.03 15861.01l-138.62 600.16c46.21,-30.59 0,0 61.54,-15.32 46.2,-15.27 107.67,-30.88 169.42,-46.13 61.46,0 138.54,-15.34 215.34,-15.34l1415.62 0c61.54,0 107.47,15.34 138.34,30.59 30.87,0 61.47,30.88 61.47,46.2l0 107.69c-15.27,30.87 -30.6,77.07 -45.93,92.33 -30.87,30.66 -46.41,46.2 -92.34,61.54 -30.87,15.54 -77.08,15.54 -138.54,15.54l-1307.96 0c-153.87,0 -276.88,15.33 -384.55,45.92 -107.67,30.88 -200.08,77.09 -277.09,153.89 -76.8,61.52 -138.33,138.54 -184.75,246.21 -61.53,107.95 -92.13,230.96 -138.33,369.5l-46.14 199.8c-45.99,184.74 -61.53,338.56 -45.99,461.56 15.12,123.28 76.59,200.3 168.93,261.82 107.95,61.48 261.82,92.34 461.63,92.34l969.32 0 277.16 0c77.01,0 153.81,-15.54 215.34,-30.86 61.47,-15.54 153.88,-61.48 169.42,-61.48l-30.87 92.34 1215.61 0 430.69 -1692.71c61.46,-246.21 77.08,-446.02 46.2,-584.63 -15.33,-153.8 -92.41,-261.47 -215.62,-338.55 -107.46,-61.55 -276.88,-92.41 -492.22,-92.41l-2477.08 0zm1738.64 1308.02l-92.34 384.76c-15.34,92.34 -30.88,153.87 -61.54,215.35 -15.54,46.2 -30.87,76.78 -61.47,107.66 -30.87,30.66 -61.74,46.21 -107.95,46.21 -30.87,15.32 -92.34,15.32 -153.88,15.32l-307.68 0c-76.8,0 -123,0 -169.21,-15.32 -46.13,-15.55 -61.46,-30.67 -77.01,-61.53 -15.12,-30.82 0,-92.34 15.55,-153.82l76.79 -307.96c15.55,-61.54 30.88,-107.46 61.47,-138.34 30.87,-46.19 61.54,-61.47 107.95,-77.07 45.93,0 107.46,-15.26 169.21,-15.26l600.11 0z"/>
  <path class="fil1" d="M11415.84 2917.23l-2080.49 3180.02c1261.82,1877.25 2421.29,3593.92 3682.82,5486.51l1477.44 0 1015.25 0c446.3,0 754.06,0 954.07,-30.67 184.47,-46.42 338.34,-153.88 261.55,-369.23 -92.34,-246.21 -353.89,-630.97 -738.44,-1215.6 -92.34,-153.82 -184.47,-292.43 -276.88,-446.24 -1400.3,-2169.66 -2849.03,-4450.65 -4295.32,-6604.79z"/>
  <path class="fil2" d="M11418.5 2921.22l-92.34 -138.55c-246.22,-353.89 -477.17,-707.57 -707.57,-1046.18 -1584.83,-2323.49 -1492.7,-2277.29 -2908.32,-107.67 -1846.1,2831.03 -3815.77,5831.49 -5554.4,8647.19 -307.76,492.23 -769.32,1277.08 661.64,1323.07l3508.22 0c753.77,0 707.57,-15.12 723.11,553.9l0 923.47c-30.88,1415.34 -107.88,1107.67 722.9,169.15 800.46,-877.21 1677.17,-1753.98 2431.22,-2692.71 307.68,-369.22 553.9,-538.64 369.22,-1061.73 -76.87,-246.23 -276.88,-415.44 -661.43,-430.7 -569.51,-15.32 -1215.61,0 -1723.38,0 -553.9,0 -769.31,-15.32 -430.69,-538.42 507.77,-815.74 1076.79,-1630.97 1584.56,-2431.15l2077.26 -3169.67z"/>
  <rect class="fil3 str0" x="-2.08" y="2.08" width="18571.7" height="18571.7"/>
 </g>
</svg>
