<?xml version="1.0"?><svg version="1.2" baseProfile="tiny-ps" viewBox="0 0 300 300" xmlns="http://www.w3.org/2000/svg" xmlns:xlink="http://www.w3.org/1999/xlink"><title>Rhino Combat Gear</title><g><g fill="#fefefe" transform="matrix(.1 0 0 -.1 0 300)"><path d="m1292 2479 11-40-12-40-12-39-40-27-39-26-123-7c-142-9-192-20-266-61l-53-30-15 21-14 20-59 30-58 29-64 10-64 11-54-10c-136-22-140-26-85-60 60-37 76-65 114-205l11-41 21-22 21-23-16-40-16-39v-80h-9c-27 0-158 201-233 356l-48 101-20 78c-11 43-20 88-20 99l-1 21-18-22c-11-13-33-61-50-107l-30-84-12-89-12-88 6-115 7-115 19-80c36-146 89-275 173-416l39-67-12-66-12-66 11-61c6-34 21-82 33-107l23-47 58-56 58-55-38-13c-45-16-129-66-201-120-64-48-181-159-181-172v-9h115l21 13c12 6 59 41 105 76 84 64 179 116 201 109l11-4-64-51c-36-28-86-74-112-102l-47-50v-31h2532l76 19c43 10 94 22 114 25l37 7-20 56c-10 31-30 75-43 98-25 42-98 115-115 115h-9l-7 78c-20 216-101 376-247 489-34 27-89 73-122 104-71 66-125 101-199 130l-52 21-85 82-85 83-55 32c-74 42-79 46-134 124l-48 68-41 31c-23 16-61 40-84 51l-43 21v36c0 93-57 210-139 281-46 41-148 99-175 99h-14l10-41z"/></g><g fill="#c7ccd5" transform="matrix(.1 0 0 -.1 0 300)"><path d="m1292 2479 11-40-12-40-12-39-40-27-39-26-123-7c-142-9-192-20-266-61l-53-30-15 21-14 20-59 30-58 29-64 10-64 11-54-10c-136-22-140-26-85-60 60-37 76-65 114-205l11-41 21-22 21-23-16-40-16-39v-80h-9c-27 0-158 201-233 356l-48 101-20 78c-11 43-20 88-20 99l-1 21-18-22c-11-13-33-61-50-107l-30-84-12-89-12-88 6-115 7-115 19-80c36-146 89-275 173-416l39-67-12-66-12-66 11-61c6-34 21-82 33-107l23-47 58-56 58-55-38-13c-45-16-129-66-201-120-64-48-181-159-181-172v-9h115l21 13c12 6 59 41 105 76 84 64 179 116 201 109l11-4-64-51c-36-28-86-74-112-102l-47-50v-31h2532l76 19c43 10 94 22 114 25l37 7-20 56c-10 31-30 75-43 98-25 42-98 115-115 115h-9l-7 78c-20 216-101 376-247 489-34 27-89 73-122 104-71 66-125 101-199 130l-52 21-85 82-85 83-55 32c-74 42-79 46-134 124l-48 68-41 31c-23 16-61 40-84 51l-43 21v36c0 93-57 210-139 281-46 41-148 99-175 99h-14l10-41zm168-169 30-47 17-68 17-68-12-56-12-56-31-49-30-49 13-8c7-5 20-9 29-9s40-16 68-35 53-35 56-35c12 0 3 36-22 92l-26 59 14 14 14 14 66-44 66-45 42-59c23-33 58-95 78-138l36-78 8 44c5 24 10 45 12 47 7 7 93-56 136-100l44-45-36-17-37-18v-27l8 5c5 3 40 1 78-4l69-10 80-40 80-40 125-109c121-107 166-156 197-215l15-29-33 22c-19 12-60 35-93 52l-58 30-76 20-75 19h-238l-76-16c-41-8-100-26-129-40-30-13-79-35-110-49l-55-25 9 16c5 9 43 43 83 76l74 58 80 39 80 39 53 11c29 6 87 11 129 11h75l-12 15c-6 8-37 24-68 36l-57 21-70 1-70 1-52-13-52-13-46-29c-25-16-47-29-49-29s1 21 6 47l10 47-10 63-11 63-32 65c-17 35-39 70-47 77l-15 13 7-25c4-14 9-57 13-97l6-72-13-46c-7-25-16-45-20-45s-10 17-14 38c-3 21-19 66-36 100l-31 62-30 21c-17 12-32 19-34 17-3-2 4-30 15-61s20-71 20-89l-1-33-23 38c-39 64-109 127-141 127-4 0 7-24 24-53l30-53 11-52 12-51-12-55-11-54-31-47-31-47-8 14c-5 7-9 21-9 31 0 11-7 34-16 53l-16 34-32 19c-17 10-47 21-66 25l-36 6-59-15-60-15-15-22c-8-12-45-63-81-113-36-49-79-114-94-143l-29-54-56-52-56-52-70-36c-38-19-86-41-107-48l-37-12-44 21-44 22-46 47-47 47-25 51-24 50-7 53-6 53 43-28 43-28 56-1h57l41 19 42 18 65 83c36 45 71 95 77 111l10 29-2 65-3 65 27 40 27 40v28c0 16-7 44-16 62l-15 33-55 43-54 44v132l28 39c16 21 57 65 92 98l64 58 43 19c51 22 158 42 197 37l27-3-26-35c-38-50-67-109-63-128l3-16 25 37c14 20 28 37 31 37 4 0 11-19 17-43 12-48 49-108 71-115l14-5-8 19c-4 11-10 44-13 75l-4 57 12 37 12 37 79 84c43 46 79 88 79 93s5 22 10 37l11 27 24-23c14-13 39-45 55-70zm-883-85 50-15 44-38 43-39-34-30-34-31-27 42c-27 42-65 80-109 109l-24 17h20c11 0 43-7 71-15zm141-503 32-24v-69l-16-6-16-6-56 19-55 19-21 40-21 40-3 68-4 68 64-63c36-35 79-73 96-86zm570-424c11-13 24-35 27-50l7-28h-34c-58 0-177-47-248-98l-24-17 19 33c11 18 41 57 67 87l48 53 42 21c54 27 69 26 96-1zm12-133c0-2-22-16-48-29-27-14-90-52-140-86l-91-61-37-70-37-70-35-27-34-26-57-4-58-4-28 14-28 15 89 63c49 34 125 93 169 130 103 86 149 116 216 140 50 18 119 27 119 15zm820-77c-228-48-552-183-780-325-132-82-133-82-55-8l69 67 111 74c214 142 396 201 625 202h75l-45-10zm-740 1228c0-8-25-51-55-95l-55-81-12-49-11-49 12-48 13-49 24-32c29-38 40-41 49-12 4 11 26 42 50 69l43 48 12 38 12 37-4 72-5 73-27 46c-27 46-46 59-46 32zm-195-556c-58-15-86-30-133-73-26-24-80-63-121-86l-74-44 18-13c10-8 29-14 40-14h22l31-29 30-29 42 9c53 12 69 20 98 52l23 24 7 64 7 63 45 34c25 19 47 38 48 43l4 9-29-1c-15-1-41-5-58-9zm-493-575-30-25-22-45-21-44 3-43 3-43 20-3 21-3 23 31 23 31 37-6 37-6 17 36 17 36v78l-22 15-22 16h-54l-30-25zm-292-111c0-9 11-36 25-59l24-43 43-21c23-11 44-18 46-16 3 2-7 18-22 35l-26 32v47l-16 15c-8 9-21 16-29 16-7 0-20 3-29 6l-16 6v-18z"/></g><g fill="#fcb91c" transform="matrix(.1 0 0 -.1 0 300)"><path d="m1292 2479 11-40-12-40-12-39-40-27-39-26-123-7c-142-9-192-20-266-61l-53-30-15 21-14 20-59 30-58 29-64 10-64 11-54-10c-136-22-140-26-85-60 60-37 76-65 114-205l11-41 21-22 21-23-16-40-16-39v-80h-9c-27 0-158 201-233 356l-48 101-20 78c-11 43-20 88-20 99l-1 21-18-22c-11-13-33-61-50-107l-30-84-12-89-12-88 6-115 7-115 19-80c36-146 89-275 173-416l39-67-12-66-12-66 11-61c6-34 21-82 33-107l23-47 58-56 58-55-38-13c-45-16-129-66-201-120-64-48-181-159-181-172v-9h115l21 13c12 6 59 41 105 76 84 64 179 116 201 109l11-4-64-51c-36-28-86-74-112-102l-47-50v-31h2532l76 19c43 10 94 22 114 25l37 7-20 56c-10 31-30 75-43 98-25 42-98 115-115 115h-9l-7 78c-20 216-101 376-247 489-34 27-89 73-122 104-71 66-125 101-199 130l-52 21-85 82-85 83-55 32c-74 42-79 46-134 124l-48 68-41 31c-23 16-61 40-84 51l-43 21v36c0 93-57 210-139 281-46 41-148 99-175 99h-14l10-41zm190-207 31-63 5-72 4-72-39-76-40-77 37-11c20-6 56-24 81-40 24-17 45-29 46-27 6 5-20 83-37 111l-18 30 13 19 14 19 57-34 56-34 40-45 40-45 52-105 51-105 3 40c2 22 7 44 12 49l9 9 28-18c47-31 123-96 134-116l10-19-38-22-37-22 85-13 84-13 70-34 70-35 70-61c39-34 104-92 145-129l75-68 28-51c16-29 26-52 23-52s-31 16-61 35c-77 50-132 72-227 91l-82 17-126-6-125-6-51-14c-28-8-89-31-135-52-46-20-100-43-119-51l-35-15 57 55c96 92 218 165 322 192l51 14h166l-6 10c-4 6-25 20-48 32l-42 21-79 5-78 5-53-12-53-12-53-32-54-33v211l-29 62c-15 34-37 69-47 79l-18 16 11-38c6-22 11-68 11-104v-65l-18-40-18-40-4 20c-2 11-13 49-25 83l-20 64-30 34c-17 19-39 39-49 44l-17 10 19-55 19-55v-42l-1-43-16 30c-27 51-72 103-109 126-19 12-37 19-39 17s9-24 25-48l29-44 12-49 12-49-6-48-6-48-24-49c-14-26-34-57-46-67l-21-19v78l-20 33-20 32-32 20-33 20h-55l-55-1-40-14c-22-8-41-19-43-24-2-6-37-57-79-113-41-57-86-125-100-152l-25-49-48-46c-58-56-156-116-227-138l-52-16-43 19-43 19-51 51-51 52-22 46-22 45-6 57-6 57 47-28 48-28h105l39 19 39 19 67 83 67 83 12 42 11 42-6 55-7 56 26 24 25 23 6 31 5 31-10 30-11 30-60 55-59 55-2 60-2 60 17 34c10 18 47 62 83 97l65 65 39 19c53 28 144 50 201 50 26 0 48-2 48-5s-17-31-39-63c-21-31-42-68-46-82l-6-25 33 39 34 39 16-59 17-59 30-29 29-28-15 52-15 53 12 55 12 54 74 78 74 77 21 48 21 47 35-33 34-34 31-63zm-851-68 49-27 15-24 16-24-32-29c-17-17-32-30-34-30-1 0-16 22-32 48l-30 49-39 28c-22 16-43 33-49 38l-10 10 49-7 48-6 49-26zm82-480 47-40v-17c0-9-8-25-19-36l-19-19-48 17c-27 9-55 20-62 24-20 13-42 64-53 123l-10 55 6 20 7 21 52-54c29-29 73-71 99-94zm562-410c17-7 45-54 45-77v-14l-50-6-50-6-84-39c-46-22-86-44-90-51-4-6-12-11-17-11h-10l16 29c8 16 40 56 70 89l55 59 32 16c36 18 57 21 83 11zm45-138c0-2-51-33-112-69-62-36-132-82-156-102l-43-37-26-52c-29-60-57-92-95-112l-27-14H744l-20 14c-10 8-17 16-14 19 3 2 45 32 94 66 48 34 129 97 179 138l92 76 61 29c67 31 184 59 184 44zm780-95c-116-25-277-81-447-156l-142-62-123-75c-68-41-136-82-153-92l-30-18 76 74 76 75 89 60c136 91 191 119 305 157 122 41 198 53 334 54l100 1-85-18zm-720 1228c0-8-25-50-55-94l-55-80-9-48-9-48 9-41c11-47 32-90 53-107l15-12 12 23c7 13 32 45 55 71l44 49 11 41 11 42-5 62-5 61-23 43c-13 23-30 44-36 47l-13 4v-13zm-189-550c-51-10-127-52-144-80l-12-20-87-51-88-50 5-8c3-5 23-11 45-15l40-7 19-24 19-24h28c16 0 48 9 71 19l41 19 17 26 17 26 2 57 1 58 52 35c75 50 70 58-26 39zm-481-566c-33-23-48-41-70-88l-20-40v-30c0-16 4-36 9-44l9-13 19 6 20 6 12 26 12 27 43-6 44-6 16 40c17 42 21 87 8 105-9 14-47 34-64 34-8 0-25-8-38-17zm-310-115c0-40 82-138 115-138h14l-24 46c-14 26-25 55-25 64v18l-40 10-40 10v-10z"/></g><g fill="#8895a7" transform="matrix(.1 0 0 -.1 0 300)"><path d="m1292 2479 11-40-12-40-12-39-40-27-39-26-123-7c-142-9-192-20-266-61l-53-30-15 21-14 20-59 30-58 29-64 10-64 11-54-10c-136-22-140-26-85-60 60-37 76-65 114-205l11-41 21-22 21-23-16-40-16-39v-80h-9c-27 0-158 201-233 356l-48 101-20 78c-11 43-20 88-20 99l-1 21-18-22c-11-13-33-61-50-107l-30-84-12-89-12-88 6-115 7-115 19-80c36-146 89-275 173-416l39-67-12-66-12-66 11-61c6-34 21-82 33-107l23-47 58-56 58-55-38-13c-45-16-129-66-201-120-64-48-181-159-181-172v-9h115l21 13c12 6 59 41 105 76 84 64 179 116 201 109l11-4-64-51c-36-28-86-74-112-102l-47-50v-31h2532l76 19c43 10 94 22 114 25l37 7-20 56c-10 31-30 75-43 98-25 42-98 115-115 115h-9l-7 78c-20 216-101 376-247 489-34 27-89 73-122 104-71 66-125 101-199 130l-52 21-85 82-85 83-55 32c-74 42-79 46-134 124l-48 68-41 31c-23 16-61 40-84 51l-43 21v36c0 93-57 210-139 281-46 41-148 99-175 99h-14l10-41zm190-207 31-63 5-72 4-72-39-76-40-77 37-11c20-6 56-24 81-40 24-17 45-29 46-27 6 5-20 83-37 111l-18 30 13 19 14 19 57-34 56-34 40-45 40-45 52-105 51-105 3 40c2 22 7 44 12 49l9 9 28-18c47-31 123-96 134-116l10-19-38-22-37-22 85-13 84-13 70-34 70-35 70-61c39-34 104-92 145-129l75-68 28-51c16-29 26-52 23-52s-31 16-61 35c-77 50-132 72-227 91l-82 17-126-6-125-6-51-14c-28-8-89-31-135-52-46-20-100-43-119-51l-35-15 57 55c96 92 218 165 322 192l51 14h166l-6 10c-4 6-25 20-48 32l-42 21-79 5-78 5-53-12-53-12-53-32-54-33v211l-29 62c-15 34-37 69-47 79l-18 16 11-38c6-22 11-68 11-104v-65l-18-40-18-40-4 20c-2 11-13 49-25 83l-20 64-30 34c-17 19-39 39-49 44l-17 10 19-55 19-55v-42l-1-43-16 30c-27 51-72 103-109 126-19 12-37 19-39 17s9-24 25-48l29-44 12-49 12-49-6-48-6-48-24-49c-14-26-34-57-46-67l-21-19v78l-20 33-20 32-32 20-33 20h-55l-55-1-40-14c-22-8-41-19-43-24-2-6-37-57-79-113-41-57-86-125-100-152l-25-49-48-46c-58-56-156-116-227-138l-52-16-43 19-43 19-51 51-51 52-22 46-22 45-6 57-6 57 47-28 48-28h105l39 19 39 19 67 83 67 83 12 42 11 42-6 55-7 56 26 24 25 23 6 31 5 31-10 30-11 30-60 55-59 55-2 60-2 60 17 34c10 18 47 62 83 97l65 65 39 19c53 28 144 50 201 50 26 0 48-2 48-5s-17-31-39-63c-21-31-42-68-46-82l-6-25 33 39 34 39 16-59 17-59 30-29 29-28-15 52-15 53 12 55 12 54 74 78 74 77 21 48 21 47 35-33 34-34 31-63zM179 2035v-51l25-67c14-37 43-103 66-145l40-77 79-105c86-114 145-179 204-226l38-31-96-46c-53-26-105-47-115-47h-18l-35 39c-95 106-191 330-233 547l-17 89-1 135-1 135 8 30 9 30 23-80 23-80 1-50zm452 169 49-27 15-24 16-24-32-29c-17-17-32-30-34-30-1 0-16 22-32 48l-30 49-39 28c-22 16-43 33-49 38l-10 10 49-7 48-6 49-26zm82-480 47-40v-17c0-9-8-25-19-36l-19-19-48 17c-27 9-55 20-62 24-20 13-42 64-53 123l-10 55 6 20 7 21 52-54c29-29 73-71 99-94zm562-410c17-7 45-54 45-77v-14l-50-6-50-6-84-39c-46-22-86-44-90-51-4-6-12-11-17-11h-10l16 29c8 16 40 56 70 89l55 59 32 16c36 18 57 21 83 11zm45-138c0-2-51-33-112-69-62-36-132-82-156-102l-43-37-26-52c-29-60-57-92-95-112l-27-14H744l-20 14c-10 8-17 16-14 19 3 2 45 32 94 66 48 34 129 97 179 138l92 76 61 29c67 31 184 59 184 44zm780-95c-116-25-277-81-447-156l-142-62-123-75c-68-41-136-82-153-92l-30-18 76 74 76 75 89 60c136 91 191 119 305 157 122 41 198 53 334 54l100 1-85-18zm-720 1228c0-8-25-50-55-94l-55-80-9-48-9-48 9-41c11-47 32-90 53-107l15-12 12 23c7 13 32 45 55 71l44 49 11 41 11 42-5 62-5 61-23 43c-13 23-30 44-36 47l-13 4v-13zm-189-550c-51-10-127-52-144-80l-12-20-87-51-88-50 5-8c3-5 23-11 45-15l40-7 19-24 19-24h28c16 0 48 9 71 19l41 19 17 26 17 26 2 57 1 58 52 35c75 50 70 58-26 39zm-481-566c-33-23-48-41-70-88l-20-40v-30c0-16 4-36 9-44l9-13 19 6 20 6 12 26 12 27 43-6 44-6 16 40c17 42 21 87 8 105-9 14-47 34-64 34-8 0-25-8-38-17zm-310-115c0-40 82-138 115-138h14l-24 46c-14 26-25 55-25 64v18l-40 10-40 10v-10z"/></g><g fill="#4f5c6c" transform="matrix(.1 0 0 -.1 0 300)"><path d="m1292 2479 11-40-12-40-12-39-40-27-39-26-123-7c-142-9-192-20-266-61l-53-30-15 21-14 20-59 30-58 29-64 10-64 11-54-10c-136-22-140-26-85-60 60-37 76-65 114-205l11-41 21-22 21-23-16-40-16-39v-80h-9c-27 0-158 201-233 356l-48 101-20 78c-11 43-20 88-20 99l-1 21-18-22c-11-13-33-61-50-107l-30-84-12-89-12-88 6-115 7-115 19-80c36-146 89-275 173-416l39-67-12-66-12-66 11-61c6-34 21-82 33-107l23-47 58-56 58-55-38-13c-45-16-129-66-201-120-64-48-181-159-181-172v-9h115l21 13c12 6 59 41 105 76 84 64 179 116 201 109l11-4-64-51c-36-28-86-74-112-102l-47-50v-31h2532l76 19c43 10 94 22 114 25l37 7-20 56c-10 31-30 75-43 98-25 42-98 115-115 115h-9l-7 78c-20 216-101 376-247 489-34 27-89 73-122 104-71 66-125 101-199 130l-52 21-85 82-85 83-55 32c-74 42-79 46-134 124l-48 68-41 31c-23 16-61 40-84 51l-43 21v36c0 93-57 210-139 281-46 41-148 99-175 99h-14l10-41zm200-218 21-46 4-80 5-80-36-69c-20-38-36-70-36-71s17-7 38-13c20-6 53-23 72-37l35-26 3 16 4 17-25 51-26 51 10 18c13 25 22 23 82-15l53-34 43-49 43-49 47-95 46-95 3 43 3 42h13c31 0 176-120 176-145 0-6-17-20-37-30l-38-19 30-3c17-2 57-8 90-14l59-11 67-34 67-33 119-104c65-57 135-122 155-145 36-40 85-122 73-122-4 0-25 13-48 29-64 43-137 78-208 97l-64 18h-280l-67-17-68-17-111-50c-61-28-113-49-115-47-9 8 133 132 190 166 30 18 84 45 118 59l63 26 110 5 110 6-28 19c-39 26-120 46-187 46h-56l-55-16c-30-9-74-28-99-43l-45-28v202l-38 79c-20 43-40 77-43 74-2-3 0-25 5-49 6-24 11-60 11-80 0-39-28-139-40-139-3 0-12 24-19 53-18 67-52 136-85 166-33 31-41 23-22-25 14-39 31-144 22-144-2 0-18 21-35 48-16 26-36 54-43 62-18 21-69 60-79 60-4 0 8-30 28-67l35-68-4-75-5-75-20-40c-12-22-32-50-46-63l-24-23-5 45-5 44-21 30-22 30-34 16-34 16h-37c-20 0-56-5-80-11l-44-11-76-103c-41-57-91-132-110-167l-35-63-57-53-57-53-89-45-89-44h-64l-45 28c-59 38-116 103-145 166l-24 51v106l36-27 36-28 58-4 57-4 45 20 45 20 65 83 66 84 11 43 12 42-7 50-7 51 21 22c11 12 26 35 31 50l11 29-12 39-11 40-58 50-58 50-7 56-7 55 16 32c20 43 110 140 163 177 24 16 62 36 84 44 43 15 200 38 208 30 2-2-12-26-32-53-20-28-43-67-52-88l-16-39 32 38c17 20 36 37 41 37h9v-27c0-34 31-103 54-122l17-14-8 29c-4 16-8 54-7 84v55l18 33c9 18 48 64 86 102l69 70 12 38c6 20 13 40 16 44 2 4 24-15 49-44l46-51 20-46zm-950-22 53-11 43-24c23-14 50-36 59-50l16-25-33-34-33-34-38 57-38 57-50 34c-69 47-68 48 21 30zm-363-204v-51l25-67c14-37 43-103 66-145l40-77 79-105c86-114 145-179 204-226l38-31-96-46c-53-26-105-47-115-47h-18l-35 39c-95 106-191 330-233 547l-17 89-1 135-1 135 8 30 9 30 23-80 23-80 1-50zm504-278c60-45 76-65 77-93v-21l-19-17-20-18-48 18c-26 9-58 26-71 38l-22 20-15 50c-15 50-20 128-9 139 4 3 22-13 41-36 20-23 58-59 86-80zm611-456c9-10 21-32 25-48l9-31-50-6c-64-9-166-50-219-88-22-16-43-28-45-25-15 14 112 163 169 197l32 20h62l17-19zm22-130c-3-5-47-32-98-61s-117-70-146-91l-52-40-30-58c-16-32-43-72-60-89l-31-31-37-11c-52-14-81-12-127 8l-39 18 94 66c52 37 136 101 185 142 50 41 111 87 136 100 50 28 138 54 182 55l28 1-5-9zm813-87c-211-38-532-171-787-326-65-39-121-73-125-76l-9-4 11 20c28 53 260 226 391 292 82 41 194 79 279 94l76 14h240l-76-14zm-754 1207c-9-18-32-55-51-81s-41-63-49-83l-15-36v-96l24-51c13-28 29-54 35-58l10-7 15 30c9 16 34 50 55 75l40 46 11 38c20 73 2 183-39 233l-18 23-18-33zm-224-544-33-11-52-46c-28-25-84-65-124-89l-72-42 5-10c4-5 17-9 30-9h24l36-31 35-31 38 7c20 4 51 15 68 26l31 19 11 25 12 26v97l28 24c15 12 39 31 52 40l25 17-40-1c-22 0-55-5-74-11zm-464-574c-29-32-66-108-67-139 0-11 6-29 14-39l14-19 30 33 30 33 37-4 36-4 14 25c7 14 16 41 20 59l7 33-16 24-16 25h-76l-27-27zm-272-130c19-45 41-70 77-89 39-20 42-18 19 13l-21 26-6 37-6 38-30 6c-17 3-34 6-39 6h-9l15-37z"/></g><g fill="#0a2447" transform="matrix(.1 0 0 -.1 0 300)"><path d="m1292 2479 11-40-12-40-12-39-40-27-39-26-123-7c-142-9-192-20-266-61l-53-30-15 21-14 20-59 30-58 29-64 10-64 11-54-10c-136-22-140-26-85-60 60-37 76-65 114-205l11-41 21-22 21-23-16-40-16-39v-80h-9c-27 0-158 201-233 356l-48 101-20 78c-11 43-20 88-20 99l-1 21-18-22c-11-13-33-61-50-107l-30-84-12-89-12-88 6-115 7-115 19-80c36-146 89-275 173-416l39-67-12-66-12-66 11-61c6-34 21-82 33-107l23-47 58-56 58-55-38-13c-45-16-129-66-201-120-64-48-181-159-181-172v-9h115l21 13c12 6 59 41 105 76 84 64 179 116 201 109l11-4-64-51c-36-28-86-74-112-102l-47-50v-31h2532l76 19c43 10 94 22 114 25l37 7-20 56c-10 31-30 75-43 98-25 42-98 115-115 115h-9l-7 78c-20 216-101 376-247 489-34 27-89 73-122 104-71 66-125 101-199 130l-52 21-85 82-85 83-55 32c-74 42-79 46-134 124l-48 68-41 31c-23 16-61 40-84 51l-43 21v36c0 93-57 210-139 281-46 41-148 99-175 99h-14l10-41zm133-110c44-49 81-126 95-197l9-52-5-33c-8-45-24-86-51-129-13-21-23-39-23-42 0-2 14-6 30-10 17-3 51-20 77-37l45-31-7 33c-4 19-16 48-27 66l-19 32 11 21c15 28 30 25 98-21l61-40 35-48c19-26 53-84 74-129 40-82 52-91 52-41 0 15 4 30 9 33l8 6 45-30c24-16 65-50 91-76l47-46-6-9c-3-5-22-18-42-29l-37-19 51-1h52l63-20c35-11 86-33 112-48 53-32 204-158 284-238l52-52 26-51c14-28 22-51 18-51-3 0-35 18-69 41l-63 41-70 24-70 24-83 11-83 10-80-6c-44-4-109-13-145-21l-65-15-113-51c-62-28-115-48-118-45-10 9 95 105 168 153 114 76 229 112 363 115l50 1-49 23-50 24-61 6-62 7-59-12-59-12-63-34c-34-19-64-34-66-34s1 19 6 43l10 42-6 63-5 64-36 75c-20 41-38 73-40 71s0-21 5-43c19-79 8-176-23-220l-14-18-18 71-17 71-28 45c-16 24-39 50-51 56l-22 12 8-18c4-11 14-41 22-69l14-50-3-35-3-35-31 55-32 56-41 37c-23 20-45 37-51 37h-9l32-51 32-52 3-73 4-72-12-39c-14-42-66-123-79-123-5 0-11 19-15 42-4 22-14 54-24 70l-17 28-40 20-41 20h-30c-17 0-54-7-82-15l-52-16-14-27c-8-15-42-63-75-107-34-44-74-105-91-137l-31-57-60-55-61-55-82-41-82-40h-65l-39 20c-22 11-60 41-85 68l-46 47-24 50-24 50-1 40c-1 22-2 48-1 58l1 17 41-27 40-26 52-4 52-4 47 23 47 23 68 85 68 85 2 89 2 89 26 36 25 37v69l-20 33c-11 17-23 32-27 32-5 0-27 18-50 40l-43 39v117l29 45c15 24 56 70 89 102l61 58 55 25 54 25 86 11 86 12 7-7 6-7-30-43c-17-23-38-58-48-77l-17-35 33 35 32 35 11-55 12-56 23-32c27-38 36-37 21 2-5 15-10 47-10 72v45l15 34 14 35 75 79 74 78 13 41c7 23 15 42 19 42s24-19 45-41zM170 2130l18-55-5-35-5-36 22-63c11-35 41-103 65-150l43-87 78-105c77-103 187-222 233-250l23-15-110-52-111-53-23 15c-61 40-161 218-217 386l-32 94-20 114-19 114v223l12 40 11 40 10-35c5-19 17-60 27-90zm440 89 50-22 31-34c16-19 29-36 27-37-2 0-19-16-39-34l-36-33-26 44c-23 39-62 78-129 130l-23 18 48-5c26-3 70-15 97-27zm14-401c34-35 79-77 99-94l37-31v-25c0-13-6-32-13-43l-14-18-62 19-63 18-25 44-26 44-5 74-5 74h7c4 0 35-28 70-62zm649-499c25-11 40-34 52-76l6-22-48-7c-65-9-137-37-208-79-32-20-60-33-62-31-3 2 13 31 36 64l40 60 48 41 48 41 30 9c17 5 31 10 32 10 1 1 13-4 26-10zm47-146c0-5-44-33-97-63s-119-71-148-92l-51-36-33-64c-42-80-57-97-106-119l-40-19h-76l-35 15-35 15 6 9c3 6 43 36 88 68 45 31 127 94 181 139 104 86 161 120 236 140 51 14 110 18 110 7zm840-71 45-7-70-13c-219-40-526-165-775-317l-143-86-6 7-6 6 67 63c115 109 286 221 421 275 147 59 349 90 467 72zm-775 1198c-3-10-27-48-53-82-25-35-52-79-59-98-24-68-11-158 31-207l23-27 13 25c7 13 32 46 56 72l43 48 12 53 11 53-11 52c-10 47-46 131-56 131-2 0-6-9-10-20zm-235-560-55-19-32-35-33-36-80-46-80-46 6-9c3-5 19-9 35-9h30l28-31 28-30 37 6c46 9 97 43 113 75l13 25v93l33 28c19 16 42 34 53 41l19 12h-30c-16 0-55-8-85-19zm-447-555c-26-18-61-74-73-116l-10-32 6-24 6-23h15c8 0 27 13 43 30l27 29 35-5 35-6 12 32c6 18 11 49 11 69v37l-12 12-12 12h-62l-21-15zm-293-116c0-7 11-31 24-53l24-42 29-14c15-8 31-16 36-18 4-2-4 13-18 34l-25 37v23c0 25-3 28-42 38l-28 6v-11z"/></g></g></svg>