<?xml version="1.0" encoding="UTF-8"?>
<svg version="1.1" xmlns="http://www.w3.org/2000/svg" width="1281" height="877">
<path d="M0 0 C36.59500685 3.2193094 74.33898206 30.04103374 99 56 C99.81791016 56.82564453 99.81791016 56.82564453 100.65234375 57.66796875 C124.21294097 82.57763902 138.04552471 116.49666013 143 150 C143.13277344 150.86496094 143.26554688 151.72992188 143.40234375 152.62109375 C144.5044839 161.3325303 144.08097195 170.23703608 144 179 C144.64324219 179.2475 145.28648437 179.495 145.94921875 179.75 C177.60830581 192.72171301 206.74042794 213.06709761 228 240 C228.50370117 240.63260742 229.00740234 241.26521484 229.52636719 241.91699219 C237.81623989 252.36293051 244.88424029 263.05075977 251.49609375 274.6171875 C259.46957011 287.67290799 274.17600978 294.55813424 287 302 C314.88462399 318.20565855 340.44534233 335.61462089 360.72265625 361.140625 C375.43573675 379.61399537 389.2346939 389.27299132 411.21704102 397.86352539 C437.55538663 408.25291565 462.58456217 422.37237065 484 441 C484.97453125 441.84046875 485.9490625 442.6809375 486.953125 443.546875 C492.26901707 448.22434723 497.02860544 453.07001497 501.5 458.5625 C509.25849661 468.02462218 518.6386836 474.84607111 528.71875 481.61376953 C536.92644077 487.19243435 544.4333844 493.59446852 552 500 C553.20249443 501.00726368 554.40558703 502.01381383 555.609375 503.01953125 C562.19954042 508.5388898 568.70283933 514.14673754 575 520 C576.17949219 521.08087891 576.17949219 521.08087891 577.3828125 522.18359375 C593.81690986 537.85147114 606.91521712 558.27612444 618 578 C618.46019531 578.81791016 618.92039062 579.63582031 619.39453125 580.47851562 C647.03459202 630.17957476 653.60365632 683.18283135 656 739 C656.80824219 739.32468262 657.61648438 739.64936523 658.44921875 739.98388672 C659.51785156 740.41975098 660.58648438 740.85561523 661.6875 741.3046875 C662.74324219 741.73249512 663.79898437 742.16030273 664.88671875 742.60107422 C693.11615182 755.2857238 714.08092083 789.53152534 724.83441162 817.14245605 C728.21589417 826.25984951 731.14917453 835.53237377 733.98535156 844.83154297 C734.93840851 847.95745263 734.93840851 847.95745263 736.13183594 850.73486328 C737 853 737 853 737 856 C727.94847825 859.06535484 719.12928553 861.550578 709.65780082 863.01975646 C699.12621937 864.65715105 688.7117679 866.30025021 678.51384485 869.46870935 C654.15984896 876.97613076 631.50951426 878.43247888 606.13039206 878.22266193 C600.50751206 878.18766953 594.88479729 878.21214856 589.26187456 878.22843683 C579.44818554 878.24898293 569.63510839 878.23306956 559.82149124 878.19205475 C549.31385328 878.1482627 538.8064492 878.12636252 528.29872894 878.13107681 C527.63036336 878.13136373 526.96199778 878.13165066 526.2733787 878.13194627 C522.86424452 878.13351041 519.45511064 878.13542987 516.04597672 878.13747464 C491.48984379 878.15148035 466.93397135 878.11748388 442.37791824 878.05730057 C418.08778208 877.99791223 393.79775759 877.95951707 369.50754929 877.94877243 C368.7509262 877.94842831 367.99430311 877.94808419 367.21475205 877.94772965 C360.30334287 877.94459729 353.39193361 877.94172043 346.4805242 877.9391499 C329.30575707 877.93275903 312.13099253 877.92316772 294.95622826 877.91139793 C294.17445267 877.91086476 293.39267708 877.91033158 292.58721132 877.90978225 C254.63345703 877.88361827 216.6797763 877.82056389 178.72607422 877.75439453 C165.56868546 877.73147624 152.41129645 877.70872183 139.25390625 877.68664551 C138.43779323 877.68527602 137.62168021 877.68390652 136.7808365 877.68249553 C98.78382673 877.61895887 60.78680427 877.58176797 22.78975527 877.55129756 C20.32048615 877.54931694 17.85121704 877.547325 15.38194794 877.54533076 C-0.98314572 877.53213201 -17.34823971 877.51938568 -33.71333396 877.50694217 C-66.27092762 877.4821824 -98.82851889 877.45476581 -131.38610882 877.4255217 C-132.936301 877.4241293 -134.48649318 877.42273875 -136.03668536 877.42135007 C-214.78528423 877.35078876 -293.53381386 877.23931713 -445 877 C-444.36943782 875.23017082 -443.7355871 873.46151305 -443.1003418 871.69335938 C-442.57140572 870.21579163 -442.57140572 870.21579163 -442.03178406 868.70837402 C-434.48379086 848.89532442 -413.92504719 830.75935883 -397.58984375 818.0234375 C-394.54402233 815.64374595 -391.62103445 813.14057995 -388.6875 810.625 C-384.1633664 806.76856053 -379.56109187 803.03276572 -374.875 799.375 C-364.91084194 791.59606034 -355.27319223 783.59160363 -346 775 C-377.44978633 782.02557645 -403.20096465 798.64548536 -428.89257812 817.46728516 C-431.46894839 819.34106325 -434.0710996 821.17618779 -436.67700195 823.00854492 C-445.45190766 829.19636846 -453.7448327 835.60840161 -461.2421875 843.31616211 C-473.67963942 856.10224968 -484.86076397 861.02943889 -502.85565186 861.28248596 C-508.36290768 861.30035788 -513.86816603 861.25067364 -519.375 861.1875 C-521.67186621 861.17242317 -523.96874201 861.15874008 -526.265625 861.14648438 C-531.84396234 861.11372323 -537.42193532 861.06376281 -543 861 C-541.86362726 851.7012054 -535.57327022 846.26765187 -528.875 840.25 C-522.28913157 834.21977282 -515.95878938 827.98096502 -509.6875 821.625 C-503.07078666 814.94850271 -496.46560318 808.72039724 -489 803 C-487.30887143 801.6085651 -485.62155019 800.21249353 -483.9375 798.8125 C-471.68142135 788.80860674 -459.22519848 779.1742947 -446.06689453 770.3828125 C-443.88093696 768.92034337 -441.70394144 767.44510806 -439.52734375 765.96875 C-430.19571991 759.66203794 -420.77093398 753.60313139 -411 748 C-410.18015625 747.52530273 -409.3603125 747.05060547 -408.515625 746.56152344 C-379.38397683 729.79166018 -379.38397683 729.79166018 -363 728 C-367.52492477 719.44603263 -374.3208967 714.49582883 -382 709 C-392.17496797 701.63653634 -399.58863892 693.07715298 -407 683 C-408.16789062 681.41445312 -408.16789062 681.41445312 -409.359375 679.796875 C-428.04850447 653.63209375 -436.13024262 623.88852881 -438 592 C-438.06058594 590.99324219 -438.12117188 589.98648438 -438.18359375 588.94921875 C-438.25430268 586.27475749 -438.1662712 583.67095227 -438 581 C-437.95891113 580.33307129 -437.91782227 579.66614258 -437.87548828 578.97900391 C-437.11466542 567.66875225 -435.32184862 556.80175257 -432.67700195 545.77832031 C-430.24832224 535.49748411 -430.61695594 528.29047597 -436.12402344 519.13037109 C-438.40872303 515.50023729 -440.77211706 511.92345508 -443.140625 508.34765625 C-451.75983689 495.32440482 -459.36138697 481.61158406 -467 468 C-467.60328125 466.92975586 -467.60328125 466.92975586 -468.21875 465.83789062 C-479.6061504 445.49477429 -488.20327741 423.93281272 -496.3125 402.125 C-496.6448465 401.23250549 -496.97719299 400.34001099 -497.3196106 399.42047119 C-504.38373821 380.39040671 -510.96540307 361.28243069 -516.0625 341.625 C-516.27344299 340.81573059 -516.48438599 340.00646118 -516.70172119 339.17266846 C-527.03974576 299.33319151 -532.21830643 259.02397941 -532.25 217.875 C-532.25100708 216.95357208 -532.25201416 216.03214417 -532.25305176 215.08279419 C-532.23226045 186.54702396 -530.21634201 158.08027188 -525 130 C-524.83838379 129.0807373 -524.67676758 128.16147461 -524.51025391 127.21435547 C-518.86825811 95.60233725 -506.48628046 46.32525507 -481 25 C-480.34 25 -479.68 25 -479 25 C-478.97083496 25.60545654 -478.94166992 26.21091309 -478.91162109 26.8347168 C-475.32560247 94.68396309 -443.43345347 158.64651205 -409 216 C-408.10380314 217.51280554 -407.20794606 219.02581244 -406.3125 220.5390625 C-379.41537966 269.82397399 -379.41537966 269.82397399 -340 307 C-340.33 306.34 -340.66 305.68 -341 305 C-341.94686147 290.73308322 -342.7485734 275.33002527 -337 262 C-336.72140137 261.35289062 -336.44280273 260.70578125 -336.15576172 260.0390625 C-334.93976048 257.22979287 -333.71193123 254.4271073 -332.44287109 251.64135742 C-330.24295375 246.77492834 -328.84514049 242.25865197 -328 237 C-328.6290625 236.51273438 -329.258125 236.02546875 -329.90625 235.5234375 C-345.76507254 222.38736461 -349.62557798 204.19756874 -353.98358154 184.99804688 C-360.97232619 154.23516605 -372.27156232 130.31155752 -399.50830078 112.67773438 C-404.72438208 109.27251399 -409.8001483 105.64373846 -414 101 C-414 100.34 -414 99.68 -414 99 C-372.20782195 86.71151404 -328.65962471 77.85518202 -286 92 C-285.19949219 92.2587793 -284.39898437 92.51755859 -283.57421875 92.78417969 C-260.87746683 100.2236706 -235.73746367 110.3938045 -222 131 C-222 131.99 -222 132.98 -222 134 C-216.50746243 132.13528648 -212.12827118 129.92742975 -207.4375 126.5 C-169.49883138 100.14974511 -124.454854 96.94524881 -79.72509766 95.91601562 C-52.62469767 95.26220622 -25.10668071 93.31870493 -4.32421875 73.640625 C5.8211089 62.11416871 9.89088354 48.35614645 9.3515625 33.15234375 C8.59606192 21.60514249 4.42156945 10.58277278 0 0 Z " fill="#082247" transform="translate(544,0)"/>
<path d="M0 0 C0.66 0 1.32 0 2 0 C3.19921875 1.22265625 3.19921875 1.22265625 4.6875 3.0625 C7.73290454 6.66856479 10.97086866 9.97673064 14.34643555 13.26733398 C41.17115311 39.46581948 60.33632771 77.12450889 61.265625 115.18359375 C61.27465858 117.2682161 61.26919389 119.35294644 61.25 121.4375 C61.24105713 122.53932617 61.23211426 123.64115234 61.22290039 124.77636719 C60.79216479 154.92339588 47.55583877 179.17954937 31.38525391 203.78027344 C30.11973143 205.80814272 29.02664225 207.84325066 28 210 C28.64324219 210.17015625 29.28648437 210.3403125 29.94921875 210.515625 C50.39652749 215.99935402 65.67133342 222.72427681 82.4296875 235.6328125 C87.05898382 239.1510777 91.96095719 242.10943738 97 245 C92.02262438 222.52712239 86.36054854 204.35835692 72 186 C72.44730469 185.3709375 72.89460937 184.741875 73.35546875 184.09375 C77.07836269 178.82295773 80.63510972 173.5061841 84 168 C87.46084753 168.66823571 90.07667914 170.0405676 93.11328125 171.80859375 C94.10690674 172.38585205 95.10053223 172.96311035 96.12426758 173.55786133 C97.17638428 174.17814209 98.22850098 174.79842285 99.3125 175.4375 C100.93031372 176.38822388 100.93031372 176.38822388 102.58081055 177.3581543 C127.19680436 191.92514982 149.046081 208.93224049 165 233 C165.47356934 233.70962891 165.94713867 234.41925781 166.43505859 235.15039062 C179.99044896 255.62853716 190.73958734 277.20349856 200.53857422 299.66455078 C201.87329134 302.7108096 203.22852752 305.74642766 204.59765625 308.77734375 C204.97760742 309.62006836 205.35755859 310.46279297 205.74902344 311.33105469 C206.43663992 312.85467137 207.12597634 314.37751351 207.81738281 315.89941406 C210 320.77496398 210 320.77496398 210 323 C210.66 323 211.32 323 212 323 C212.04898438 322.07703125 212.09796875 321.1540625 212.1484375 320.203125 C212.60680454 312.20541047 213.19127523 304.22628119 213.9375 296.25 C214.01210449 295.3930957 214.08670898 294.53619141 214.16357422 293.65332031 C214.24236816 292.84475586 214.32116211 292.03619141 214.40234375 291.203125 C214.46929443 290.48801758 214.53624512 289.77291016 214.60522461 289.03613281 C215.04647098 286.76031667 215.88073154 285.01996307 217 283 C235.97421172 285.18387788 255.17279369 304.80398675 269 317 C269.86753906 317.75667969 270.73507812 318.51335937 271.62890625 319.29296875 C292.55629944 337.79684535 292.55629944 337.79684535 296 346 C296.03515625 347.98046875 296.03515625 347.98046875 295 350 C292.91361522 351.6369638 290.93853664 353.00613037 288.6875 354.375 C288.06174072 354.76856689 287.43598145 355.16213379 286.79125977 355.56762695 C281.91226566 358.58331761 276.87970139 361.12051881 271.62109375 363.41796875 C268.21435212 365.4741988 266.41128087 367.84745738 264 371 C265.15894775 370.9685791 265.15894775 370.9685791 266.34130859 370.93652344 C301.65756491 370.11266865 334.18993556 375.93280391 366 392 C366.80566406 392.40557129 367.61132812 392.81114258 368.44140625 393.22900391 C391.23128693 404.8722492 411.88881871 419.50108389 429.79296875 437.78125 C433.04024289 441.0457663 436.50067683 444.01123382 440 447 C441.1493482 448.0002566 442.2976922 449.00166765 443.4453125 450.00390625 C449.96767605 455.69412638 456.5313337 461.30876588 463.2578125 466.7578125 C467.37654987 470.12555502 471.42036304 473.57946744 475.46875 477.03125 C477.44493384 478.71142193 479.44175984 480.35285742 481.46875 481.97192383 C488.37956017 487.51026575 494.75836818 493.40789 501 499.6875 C501.47900757 500.16833038 501.95801514 500.64916077 502.45153809 501.14456177 C509.92679909 508.66761339 516.91875635 516.30303049 523 525 C523.4213623 525.59296875 523.84272461 526.1859375 524.27685547 526.796875 C545 556.14374535 545 556.14374535 545 567 C540.59518717 565.47078196 536.94450072 563.11497354 533.125 560.5 C532.14152588 559.83677734 532.14152588 559.83677734 531.13818359 559.16015625 C528.45811123 557.35253161 525.78503541 555.53473426 523.11328125 553.71484375 C501.53992835 539.04128389 479.29180282 526.84158664 454.38378906 518.78369141 C452.12436984 518.04088767 449.88681327 517.25285571 447.6484375 516.44921875 C437.70524051 512.97210884 427.57704073 510.73103609 417.25 508.75 C415.3613623 508.38056274 415.3613623 508.38056274 413.43457031 508.00366211 C392.83012127 504.22739723 372.15030012 503.65245585 351.25 503.75 C350.06344818 503.75310181 348.87689636 503.75620361 347.65438843 503.75939941 C330.70044614 503.81136202 313.85283061 503.97517865 297 506 C295.95199219 506.11827148 294.90398438 506.23654297 293.82421875 506.35839844 C268.41700862 509.31955905 242.61025183 515.00682364 219 525 C218.08331543 525.38494629 217.16663086 525.76989258 216.22216797 526.16650391 C203.26386585 531.64959844 190.56256397 537.61031646 177.9206543 543.7824707 C162.47291921 551.2726517 146.71811826 558.10089215 131 565 C131 561.36596152 131.60601135 560.99086871 134.04296875 558.4453125 C134.69821533 557.754375 135.35346191 557.0634375 136.02856445 556.3515625 C136.74101318 555.61679687 137.45346191 554.88203125 138.1875 554.125 C138.91348389 553.36703125 139.63946777 552.6090625 140.38745117 551.828125 C142.58292077 549.54347121 144.78999221 547.27058361 147 545 C147.61262695 544.36545898 148.22525391 543.73091797 148.85644531 543.07714844 C155.00946229 536.71377191 161.25768376 530.73095333 168.2109375 525.23046875 C170.7063103 523.2348695 173.12289485 521.17015906 175.53076172 519.07055664 C182.95301633 512.63149502 190.82566393 506.96107093 198.93164062 501.41699219 C200.83240703 500.11481464 202.72165897 498.79754469 204.609375 497.4765625 C246.17644555 468.71673735 292.51054533 450.43083014 343.30078125 449.68359375 C344.5031694 449.66281265 345.70555756 449.64203156 346.94438171 449.62062073 C350.73370412 449.5559521 354.52308755 449.49663038 358.3125 449.4375 C360.90300076 449.39423587 363.49349565 449.35061926 366.08398438 449.30664062 C372.38926099 449.20035731 378.69459643 449.09844754 385 449 C383.74703126 447.8804032 382.49066561 446.76460733 381.23291016 445.65039062 C380.5336441 445.02861938 379.83437805 444.40684814 379.11392212 443.76623535 C376.07828912 441.22988727 372.87427207 439.322172 369.375 437.5 C368.65626709 437.12472168 367.93753418 436.74944336 367.19702148 436.36279297 C352.47287355 428.99681588 336.30723678 424.86806248 320 423 C319.1953833 422.9071875 318.3907666 422.814375 317.56176758 422.71875 C271.96749437 418.01007448 231.79194169 428.49357114 193.86914062 453.93334961 C192.91072266 454.57151611 191.95230469 455.20968262 190.96484375 455.8671875 C190.1049585 456.44581543 189.24507324 457.02444336 188.35913086 457.62060547 C186.18114183 458.89408555 184.4649907 459.55622332 182 460 C182.26554688 458.91203125 182.53109375 457.8240625 182.8046875 456.703125 C183.16167647 455.21880245 183.51843469 453.73442438 183.875 452.25 C184.04902344 451.53972656 184.22304688 450.82945312 184.40234375 450.09765625 C184.96623762 447.73765597 185.49130726 445.37251714 186 443 C186.18820312 442.13294434 186.37640625 441.26588867 186.5703125 440.37255859 C188.17381384 432.06441729 188.30628958 423.91092873 188.26074219 415.48291016 C188.25004773 413.13547757 188.26068251 410.78881536 188.2734375 408.44140625 C188.31053928 371.31472723 173.41635863 328.65897851 148 301 C147.34 300.67 146.68 300.34 146 300 C146.30292969 300.88816406 146.60585938 301.77632813 146.91796875 302.69140625 C149.68846268 311.05307814 151.89132858 319.45090827 153.75 328.0625 C154.06553833 329.52441772 154.06553833 329.52441772 154.38745117 331.01586914 C158.39224864 350.01449732 159.55675475 372.17873391 154 391 C153.6596875 392.2684375 153.319375 393.536875 152.96875 394.84375 C150.09623447 405.09063325 145.74005364 414.49636887 141 424 C140.34 424 139.68 424 139 424 C138.69932617 422.68902344 138.69932617 422.68902344 138.39257812 421.3515625 C127.45501001 373.93161637 127.45501001 373.93161637 102 333 C101.14728516 331.99839844 101.14728516 331.99839844 100.27734375 330.9765625 C94.80127036 325.02957371 87.22703846 319.61351923 80 316 C81.38479517 323.50292979 83.96077825 330.05844883 86.9375 337.0625 C90.91687071 346.70174995 93.80805566 355.63124146 95 366 C95.09063721 366.63993896 95.18127441 367.27987793 95.2746582 367.93920898 C96.20378986 374.97128563 96.11144564 381.98044279 96.0625 389.0625 C96.05798828 390.30966797 96.05347656 391.55683594 96.04882812 392.84179688 C96.03713163 395.89458221 96.02074086 398.94726498 96 402 C93.71807562 399.90088957 92.30500228 397.96086611 90.94140625 395.18359375 C90.37184204 394.05050781 90.37184204 394.05050781 89.79077148 392.89453125 C89.38544189 392.08371094 88.9801123 391.27289063 88.5625 390.4375 C81.30564198 376.31106917 72.65698566 362.82119417 62 351 C61.56252441 350.51337891 61.12504883 350.02675781 60.67431641 349.52539062 C49.90028731 337.70653911 37.67209929 330.21492578 23 324 C24.28955458 326.16794683 25.58139402 328.33447103 26.875 330.5 C27.27775146 331.17562988 27.68050293 331.85125977 28.09545898 332.54736328 C30.19489222 336.05248289 32.32360305 339.53030732 34.54296875 342.9609375 C53.47193481 372.27006799 60.72393295 403.52887343 53.90673828 438.26708984 C48.73430962 461.77064039 36.42587112 485.20639618 18 501 C16.35611268 502.03702086 14.69443307 503.0478055 13 504 C12.9906543 503.31599121 12.98130859 502.63198242 12.97167969 501.92724609 C12.80052621 483.07301011 12.80052621 483.07301011 8 465 C7.60039063 463.98292969 7.20078125 462.96585938 6.7890625 461.91796875 C0.00674392 446.64795091 -12.86323951 435.89539727 -28.26953125 429.9296875 C-43.66935814 424.35495016 -62.11101819 424.28624064 -78 428 C-79.16660156 428.268125 -80.33320313 428.53625 -81.53515625 428.8125 C-89.56431982 430.80526035 -97.04310753 433.44043377 -104.66015625 436.6328125 C-108 438 -108 438 -111.33984375 438.9296875 C-114.08610261 439.71435813 -114.08610261 439.71435813 -115.03125 441.8125 C-115.1859375 442.534375 -115.340625 443.25625 -115.5 444 C-117.85988106 453.03238822 -123.98161552 460.62531685 -129.5 468 C-130.10457031 468.8146875 -130.70914062 469.629375 -131.33203125 470.46875 C-135.48210834 476.03655529 -139.7203506 481.53145857 -144 487 C-162.09398636 510.14188215 -178.81451532 533.9221049 -191.625 560.4375 C-194.80184229 566.85752236 -198.51975179 572.42082298 -203 578 C-203.42909668 578.53592773 -203.85819336 579.07185547 -204.30029297 579.62402344 C-223.80114256 603.75744337 -249.21162678 621.72842619 -276 637 C-276.69512695 637.39687012 -277.39025391 637.79374023 -278.10644531 638.20263672 C-295.14652876 647.81293881 -316.22738461 659.26556005 -336 661 C-336.72574219 661.07605469 -337.45148438 661.15210938 -338.19921875 661.23046875 C-357.99485045 662.40991863 -378.99011802 645.41695928 -393.3203125 633.43359375 C-397.73498157 629.42435347 -401.70848346 625.07277396 -405.62060547 620.58251953 C-406.99805329 619.00223338 -408.39124799 617.4368604 -409.78515625 615.87109375 C-426.32165364 597.06550688 -440.66055114 573.24102907 -444 548 C-444.10957031 547.24976563 -444.21914063 546.49953125 -444.33203125 545.7265625 C-445.12649915 539.01066051 -445.13410093 532.25443787 -445.1875 525.5 C-445.20055176 524.5193457 -445.21360352 523.53869141 -445.22705078 522.52832031 C-445.22874268 521.13758301 -445.22874268 521.13758301 -445.23046875 519.71875 C-445.23457764 518.88279297 -445.23868652 518.04683594 -445.24291992 517.18554688 C-445 515 -445 515 -443 512 C-442.28457031 512.6290625 -441.56914062 513.258125 -440.83203125 513.90625 C-422.21618921 529.89708973 -401.24169046 539.65861857 -376.34375 538.21142578 C-364.01632293 537.09938913 -352.14345411 533.27757201 -341 528 C-339.98993896 527.52651123 -339.98993896 527.52651123 -338.95947266 527.04345703 C-329.39376505 522.44220238 -322.59362545 517.50961386 -316.28222656 508.76757812 C-314.35319579 506.10836587 -312.34280605 503.51290067 -310.34204102 500.9074707 C-309.23468201 499.46350855 -308.13102526 498.01669998 -307.03100586 496.56713867 C-303.23714111 491.57141134 -299.34676775 486.6677364 -295.375 481.8125 C-290.36374788 475.68588613 -285.3914878 469.53654422 -280.56640625 463.26171875 C-278.95027747 461.16957765 -277.308231 459.23610342 -275.52734375 457.26953125 C-263.08393131 442.87339632 -261.11676461 420.2303369 -261.79003906 401.84716797 C-262.28738614 395.10291025 -263.4913196 388.42658138 -264.66479492 381.77197266 C-264.84888916 380.70640137 -265.0329834 379.64083008 -265.22265625 378.54296875 C-265.39547119 377.59446045 -265.56828613 376.64595215 -265.74633789 375.66870117 C-266.01656932 372.82567932 -265.80064052 370.73515798 -265 368 C-263.03125 365.74609375 -263.03125 365.74609375 -260.5 363.4375 C-250.14958924 353.45780596 -242.08093447 343.49899405 -241.53344727 328.82885742 C-241.41692273 319.62682135 -242.28421339 311.52196074 -246 303 C-246.37874268 302.09773682 -246.37874268 302.09773682 -246.76513672 301.17724609 C-251.0984198 291.11243287 -256.70417571 284.68823397 -265.43652344 278.16845703 C-267.66859652 276.50032746 -269.83082024 274.7487687 -272 273 C-272.7940625 272.3709375 -273.588125 271.741875 -274.40625 271.09375 C-279.06347361 267.33430443 -283.64558445 263.4653867 -288.12353516 259.49414062 C-290.04437134 257.89220987 -290.04437134 257.89220987 -292.57568359 256.49023438 C-297.11511929 253.59552176 -299.58722647 251.5702542 -300.98730469 246.24414062 C-301.5582109 241.67293268 -301.5940411 237.10067979 -301.625 232.5 C-301.67139888 230.93736372 -301.72215202 229.37485043 -301.77734375 227.8125 C-301.90109023 223.96020391 -301.95159416 220.11124718 -301.97564697 216.25717163 C-301.99977726 214.0206452 -302.060016 211.78757009 -302.12841797 209.55200195 C-302.31052657 202.36245085 -302.37096078 196.58700979 -298.875 190.1875 C-298.52663086 189.54772217 -298.17826172 188.90794434 -297.81933594 188.2487793 C-290.16558644 174.74796631 -280.211201 162.65116175 -269.44482422 151.54174805 C-267.79698553 149.78336661 -266.23564468 147.96295504 -264.66796875 146.1328125 C-260.93609661 141.84042202 -256.909391 137.93704003 -252.75 134.0625 C-252.00129639 133.36302246 -251.25259277 132.66354492 -250.48120117 131.94287109 C-244.83706513 126.70549224 -239.12671878 121.67217404 -233 117 C-232.48969238 116.60651367 -231.97938477 116.21302734 -231.45361328 115.80761719 C-197.53883713 89.85315384 -154.14311753 81.55974376 -112.125 81.9375 C-111.13886719 81.94201172 -110.15273438 81.94652344 -109.13671875 81.95117188 C-106.75774203 81.96272031 -104.37890865 81.97899632 -102 82 C-105.381154 88.48927765 -109.26678657 94.30437374 -113.6875 100.125 C-134.23086118 127.23239204 -134.23086118 127.23239204 -145 159 C-140.55423988 154.25981868 -136.66810872 149.24528235 -132.9375 143.9375 C-127.72917007 136.55149487 -122.49139545 129.27100763 -115 124 C-114.34 124 -113.68 124 -113 124 C-112.89042969 125.30453125 -112.78085937 126.6090625 -112.66796875 127.953125 C-110.47214235 152.75360587 -104.3061399 175.11210231 -86 193 C-83.72905596 194.85009019 -81.47363663 196.421083 -79 198 C-80.50533086 192.79865352 -82.10948079 187.65355177 -83.89892578 182.54199219 C-92.09702581 158.85859211 -90.95597554 133.60599479 -80 111 C-72.8273286 97.68364803 -63.16569864 86.83059851 -52.4375 76.25 C-51.54353516 75.35667969 -50.64957031 74.46335937 -49.72851562 73.54296875 C-44.64395557 68.49188422 -39.43541741 63.66841876 -34 59 C-20.7310089 47.1173214 -13.01043158 33.55422377 -7.21875 16.87890625 C-6.90381592 15.97293701 -6.58888184 15.06696777 -6.2644043 14.13354492 C-5.63775007 12.31754951 -5.01919598 10.49873541 -4.40942383 8.67700195 C-4.12607178 7.84257568 -3.84271973 7.00814941 -3.55078125 6.1484375 C-3.29981689 5.39739746 -3.04885254 4.64635742 -2.7902832 3.87255859 C-2 2 -2 2 0 0 Z " fill="#FCFDFD" transform="translate(589,51)"/>
<path d="M0 0 C2.3755744 2.3755744 2.56895318 3.68224727 3.296875 6.92578125 C3.52995361 7.93906494 3.76303223 8.95234863 4.00317383 9.99633789 C4.24962646 11.09067139 4.4960791 12.18500488 4.75 13.3125 C8.80808409 30.66870879 13.50190042 47.39778563 20.0168457 64.00805664 C21.83181706 68.66631285 23.48218045 72.98309259 24 78 C22.515 78.495 22.515 78.495 21 79 C15.29081721 94.43306123 21.63539448 113.03846883 26.79394531 127.59521484 C28.00979535 131.02765304 29.17585982 134.47413826 30.3359375 137.92578125 C35.95021836 154.38392673 42.59500807 170.27143461 50 186 C50.68231689 187.44947021 50.68231689 187.44947021 51.37841797 188.92822266 C68.10374895 224.09602674 90.04713909 256.38931514 114 287 C114.85698415 288.10400111 115.71375011 289.20817163 116.5703125 290.3125 C126.1389994 302.6103214 136.06952734 314.61749664 146.17675781 326.47558594 C148.92836223 329.70907545 151.602061 332.99394703 154.25 336.3125 C158.17590706 341.12969407 162.3276921 345.70546824 166.5625 350.25 C167.17577148 350.91169189 167.78904297 351.57338379 168.42089844 352.25512695 C172.70792504 356.81109196 177.24904088 360.93600633 182 365 C183.10748691 365.98340898 184.21306196 366.96897668 185.31640625 367.95703125 C192.42049283 374.23812957 199.73412868 379.73550675 207.72265625 384.84375 C210.63256497 386.7582549 213.32429682 388.77446239 216 391 C205.87504661 396.69959111 195.45897531 401.64518935 184.9074707 406.4987793 C173.38608488 411.80013624 161.92561905 417.22649109 150.47189331 422.67230225 C149.67542389 423.0509845 148.87895447 423.42966675 148.05834961 423.81982422 C147.28028458 424.18985565 146.50221954 424.55988708 145.70057678 424.94113159 C143.46918207 425.99954665 141.23455191 427.05087276 138.99951172 428.1015625 C136.51639818 429.27095068 134.06454147 430.47265273 131.61376953 431.7109375 C130.64938965 432.18789063 129.68500977 432.66484375 128.69140625 433.15625 C127.89033447 433.56681641 127.0892627 433.97738281 126.26391602 434.40039062 C123.22193273 435.20607497 121.75130978 434.40696897 119 433 C92.83250464 416.73801402 76.14858715 386.33568826 62 360 C61.4956543 359.06510742 60.99130859 358.13021484 60.47167969 357.16699219 C31.49438606 303.21596285 11.5584057 244.61364854 0.63183594 184.42236328 C0.0792342 181.42917503 -0.50723939 178.44675103 -1.1171875 175.46484375 C-3.45170257 163.83871539 -4.89683773 152.15447785 -6.1875 140.375 C-6.31478485 139.22991974 -6.31478485 139.22991974 -6.44464111 138.06170654 C-8.52561812 119.12904599 -9.20883854 100.22686909 -9.1875 81.1875 C-9.18722809 80.2639975 -9.18695618 79.340495 -9.18667603 78.38900757 C-9.11423113 24.42799002 -9.11423113 24.42799002 0 0 Z " fill="#FDB91D" transform="translate(56,118)"/>
<path d="M0 0 C3.02893121 0.0107262 6.05726805 0.00001786 9.08618164 -0.01269531 C22.84568042 -0.02102053 36.41217612 0.83952205 50.09594727 2.26074219 C49.76594727 2.92074219 49.43594727 3.58074219 49.09594727 4.26074219 C46.46655273 4.80737305 46.46655273 4.80737305 42.96313477 5.22558594 C41.68986328 5.38397949 40.4165918 5.54237305 39.10473633 5.70556641 C38.42963013 5.78579041 37.75452393 5.8660144 37.05895996 5.94866943 C34.26394193 6.28274803 31.47213265 6.63984229 28.68045044 7.00062561 C26.73044553 7.25232971 24.77966769 7.49802405 22.82885742 7.7434082 C17.236739 8.51840486 11.71458163 9.51054033 6.21069336 10.77734375 C3.56831538 11.38135072 0.91982956 11.9557864 -1.72827148 12.53417969 C-16.65027378 15.83820097 -31.3083213 19.73428735 -45.90405273 24.26074219 C-47.05405762 24.61620117 -48.2040625 24.97166016 -49.38891602 25.33789062 C-106.45370884 43.09274108 -161.89790868 65.73858543 -215.90405273 91.26074219 C-216.98557617 91.76992188 -218.06709961 92.27910156 -219.18139648 92.80371094 C-247.60711208 106.20686653 -274.68931159 121.20293691 -301.35717773 137.81152344 C-307.52456424 141.6522043 -313.71418604 145.45643536 -319.90405273 149.26074219 C-327.88711655 154.17110163 -335.86901916 159.08329947 -343.84155273 164.01074219 C-344.67984619 164.52781738 -345.51813965 165.04489258 -346.38183594 165.57763672 C-350.73305297 168.26880533 -355.05847864 170.99416265 -359.35717773 173.76855469 C-360.23639893 174.33348633 -361.11562012 174.89841797 -362.02148438 175.48046875 C-363.69969527 176.56133413 -365.37358645 177.64894451 -367.04248047 178.74414062 C-367.7844165 179.22141602 -368.52635254 179.69869141 -369.29077148 180.19042969 C-370.26856567 180.82827393 -370.26856567 180.82827393 -371.26611328 181.47900391 C-371.8066333 181.73697754 -372.34715332 181.99495117 -372.90405273 182.26074219 C-373.56405273 181.93074219 -374.22405273 181.60074219 -374.90405273 181.26074219 C-363.48440909 163.64409056 -347.03637086 147.2163068 -330.52124023 134.31542969 C-328.06621046 132.3880481 -325.69572541 130.3832895 -323.33422852 128.34301758 C-316.14399137 122.14352696 -308.65177765 116.41218508 -300.9987793 110.79785156 C-299.62080138 109.78669201 -298.24507944 108.77244963 -296.87182617 107.75488281 C-269.8306022 87.72338676 -241.39907206 69.4463076 -211.90405273 53.26074219 C-210.99204102 52.75542969 -210.0800293 52.25011719 -209.14038086 51.72949219 C-182.22127678 36.88823452 -153.49319899 25.51476721 -123.90405273 17.26074219 C-122.85072754 16.96151855 -122.85072754 16.96151855 -121.77612305 16.65625 C-96.60324064 9.54092912 -71.13578325 5.11922287 -45.14437866 2.48986816 C-43.57719901 2.32958721 -42.0105183 2.16438596 -40.44424438 1.9954834 C-26.93992128 0.54663677 -13.58052507 -0.05688178 0 0 Z " fill="#FAFBFB" transform="translate(889.904052734375,607.7392578125)"/>
<path d="M0 0 C11.35941633 4.63075305 17.71461782 20.73021816 22.46875 31.25 C34.51302277 60.62627506 35.51736236 93.29041615 23.9140625 122.85400391 C18.30899335 136.01334094 9.21924991 146.05877825 -0.96484375 155.8671875 C-11.59234722 166.1593925 -17.64257455 177.83930369 -24 191 C-37.09476222 184.97811368 -44.97411641 167.69535121 -50 155 C-58.50812885 130.90767474 -59.15420584 104.89355487 -48.14404297 81.41064453 C-46.54033329 78.20706732 -44.80585757 75.09330012 -43 72 C-42.47921875 71.08863281 -41.9584375 70.17726563 -41.421875 69.23828125 C-35.22645431 59.02209512 -27.66810639 49.57300766 -20.51513672 40.01611328 C-11.2170106 27.5664188 -3.88779625 15.16752088 0 0 Z " fill="#092348" transform="translate(592,85)"/>
<path d="M0 0 C-0.37646722 2.38124194 -0.64553704 3.67290477 -2.44506836 5.33349609 C-3.07034424 5.72617676 -3.69562012 6.11885742 -4.33984375 6.5234375 C-5.05914063 6.97944336 -5.7784375 7.43544922 -6.51953125 7.90527344 C-7.31746094 8.3902832 -8.11539063 8.87529297 -8.9375 9.375 C-9.77796875 9.89610352 -10.6184375 10.41720703 -11.484375 10.95410156 C-19.42079719 15.7980756 -27.60577991 20.15262565 -35.81591797 24.50976562 C-66.59839404 40.91637459 -100.20557536 58.98300422 -125 84 C-125.91652344 84.9178125 -126.83304688 85.835625 -127.77734375 86.78125 C-132.67759616 92.58236939 -135.61290731 99.82289239 -138.875 106.625 C-151.62494345 133.08772534 -165.3856493 154.28483889 -194 165 C-211.63822384 170.87940795 -234.34694049 170.22514499 -251.28125 162.50390625 C-255.45311617 160.30269791 -259.2684929 157.88421535 -263 155 C-261.49989346 151.07452293 -259.32517216 149.59080623 -255.8359375 147.35546875 C-254.79566406 146.67806641 -253.75539063 146.00066406 -252.68359375 145.30273438 C-251.59175781 144.60470703 -250.49992187 143.90667969 -249.375 143.1875 C-242.88609548 139.01941598 -236.70015599 134.92489293 -230.99853516 129.72192383 C-227.10186311 126.36457861 -222.7723263 123.60158599 -218.5 120.75 C-216.54286937 119.42853259 -214.58583879 118.10691699 -212.62890625 116.78515625 C-210.75260579 115.52343508 -208.87630381 114.26171618 -207 113 C-192.55268479 103.24828569 -178.92192766 92.97048637 -165.76611328 81.53222656 C-162.85603606 79.00753142 -159.92739021 76.50457676 -157 74 C-153.49164524 70.99780386 -149.98709502 67.99172784 -146.5 64.96484375 C-139.10332137 58.55700382 -131.58023199 52.36292285 -123.81835938 46.40185547 C-121.95842408 44.96794725 -120.11225274 43.51739639 -118.265625 42.06640625 C-84.11138585 15.51643285 -43.63271217 -1.03204838 0 0 Z " fill="#FBFCFC" transform="translate(563,576)"/>
<path d="M0 0 C-0.86674059 4.14373241 -1.60365901 5.70502499 -5.0546875 8.2734375 C-6.31876885 8.99070372 -7.59290391 9.69045481 -8.875 10.375 C-10.24213824 11.15144403 -11.60800915 11.93012344 -12.97265625 12.7109375 C-13.65344238 13.09475586 -14.33422852 13.47857422 -15.03564453 13.87402344 C-23.89309315 18.95114909 -31.67026323 24.91377608 -39 32 C-40.62035156 33.11761719 -40.62035156 33.11761719 -42.2734375 34.2578125 C-45.52630001 37.53342953 -45.51091433 41.05948994 -45.515625 45.453125 C-45.47800238 48.38823553 -45.37105468 51.31729103 -45.25 54.25 C-45.15643728 57.17159207 -45.07975952 60.09324313 -45.015625 63.015625 C-44.99984909 63.71728287 -44.98407318 64.41894073 -44.96781921 65.14186096 C-44.78357482 78.87371489 -49.4780686 91.99072566 -59 102 C-68.35948381 111.25548954 -81.40156543 116.59242341 -94 120 C-95.12341797 120.30550781 -95.12341797 120.30550781 -96.26953125 120.6171875 C-103.70965843 122.37204787 -113.38906943 124.37600287 -120.42578125 120.75 C-124.75833173 117.11570523 -128.03166401 112.50415707 -131.42578125 108.01171875 C-135.62186616 102.64947625 -140.51330007 100.49847797 -147 99 C-149.74022628 98.69197456 -152.47632088 98.49722708 -155.2265625 98.30078125 C-162.33168972 97.5302252 -168.33556314 95.32285971 -174 91 C-172.73446344 87.20339032 -171.59880443 86.91194302 -168.1640625 84.98828125 C-166.61706665 84.11079224 -166.61706665 84.11079224 -165.03881836 83.21557617 C-163.9122583 82.58756104 -162.78569824 81.9595459 -161.625 81.3125 C-159.85194504 80.31014146 -158.08098698 79.30415017 -156.31022644 78.29774475 C-155.0796484 77.5983528 -153.84852889 76.8999128 -152.61689758 76.20237732 C-146.00462761 72.45203276 -139.46947362 68.5755022 -132.9375 64.6875 C-131.81432373 64.02081299 -130.69114746 63.35412598 -129.53393555 62.66723633 C-124.54964451 59.70837558 -119.5692787 56.74309966 -114.59375 53.76953125 C-113.04171548 52.8462721 -111.48963605 51.92308844 -109.9375 51 C-109.24712646 50.58451904 -108.55675293 50.16903809 -107.84545898 49.7409668 C-103.22641124 47 -103.22641124 47 -101 47 C-100.773125 46.29359375 -100.54625 45.5871875 -100.3125 44.859375 C-98.73849916 41.43030173 -96.56498591 38.95628683 -94 36.25 C-93.50798096 35.72631836 -93.01596191 35.20263672 -92.5090332 34.66308594 C-68.1137145 8.98710112 -34.83329422 -0.90086106 0 0 Z " fill="#092348" transform="translate(542,325)"/>
<path d="M0 0 C5.1451496 3.82087059 7.61489632 8.54504215 8.9765625 14.75 C10.65658013 34.50615667 3.3830461 51.3408283 -5.0234375 68.75 C-9.73760356 68.29379038 -14.27821833 67.73149183 -18.8984375 66.6875 C-26.06331459 65.20087184 -33.28779395 64.51734164 -40.0234375 67.75 C-45.05437424 72.0447021 -47.65089542 77.110496 -50.6484375 82.875 C-54.44306559 87.46849717 -59.73963768 90.29956728 -65.671875 91.11328125 C-68.0234375 90.75 -68.0234375 90.75 -69.53515625 89.17578125 C-69.92316406 88.47839844 -70.31117188 87.78101563 -70.7109375 87.0625 C-71.10667969 86.37800781 -71.50242187 85.69351563 -71.91015625 84.98828125 C-72.46123047 83.88033203 -72.46123047 83.88033203 -73.0234375 82.75 C-73.39082031 82.02554688 -73.75820313 81.30109375 -74.13671875 80.5546875 C-79.11810283 64.7985916 -73.17948242 47.87266042 -66.19824219 33.77197266 C-58.46440166 18.91244227 -45.8926497 0.64203518 -29.21875 -4.84375 C-18.75057828 -6.78092057 -9.04453743 -5.58735903 0 0 Z " fill="#092348" transform="translate(340.0234375,569.25)"/>
<path d="M0 0 C3.07616304 2.92476351 5.57090124 6.00514806 8.0625 9.4375 C13.07134265 16.22516433 18.45278375 22.64822567 24 29 C24.45665039 29.52658203 24.91330078 30.05316406 25.38378906 30.59570312 C36.10228822 42.89112434 48.50673924 52.25980331 62.2109375 61.0625 C72.7373061 67.85028429 80.97768043 74.71364203 85 87 C86.23242211 95.01517691 85.58784206 101.93147495 81.5 109.00390625 C78.63288592 112.81925859 75.52977102 114.49007633 71 116 C64.78802047 116.65389258 61.57052971 115.45081748 56.171875 112.5 C50.56625018 109.84906412 44.60696093 108.22553999 38.68359375 106.4296875 C37.12212967 105.95399781 35.56093302 105.47742942 34 105 C33.1848291 104.7532251 32.3696582 104.5064502 31.52978516 104.25219727 C30.3413501 103.87792603 30.3413501 103.87792603 29.12890625 103.49609375 C28.06458374 103.16629517 28.06458374 103.16629517 26.97875977 102.82983398 C17.11090373 98.69154371 10.39490375 84.68469073 6.38793945 75.27441406 C3.60724537 68.35159807 1.47732344 61.31455263 0 54 C-0.16991455 53.26015869 -0.3398291 52.52031738 -0.51489258 51.75805664 C-2.11170721 44.19103557 -2.27480564 36.75086453 -2.20581055 29.04760742 C-2.18749752 26.93721411 -2.18530213 24.8272617 -2.18554688 22.71679688 C-2.13271221 2.13271221 -2.13271221 2.13271221 0 0 Z " fill="#FCFCFC" transform="translate(238,274)"/>
<path d="M0 0 C10.61758077 7.16571126 15.02671894 19.31035631 18.24609375 31.28125 C18.75273616 34.16555633 18.76798331 36.8937152 18.69140625 39.81640625 C18.11922363 39.86128174 17.54704102 39.90615723 16.95751953 39.95239258 C-26.54099855 43.4390476 -66.44893268 57.68217503 -102 83.49609375 C-102.63301025 83.95363037 -103.26602051 84.41116699 -103.91821289 84.88256836 C-105.14790977 85.77462665 -106.3726691 86.67354495 -107.59155273 87.58032227 C-110.41908964 89.64702447 -112.78620803 91.34157484 -116.30859375 91.81640625 C-111.61259525 79.07361866 -103.4598345 67.56716615 -95.30859375 56.81640625 C-94.86757324 56.23117187 -94.42655273 55.6459375 -93.97216797 55.04296875 C-87.52888085 46.53550785 -80.6870544 38.52364805 -73.30859375 30.81640625 C-72.83309082 30.31367187 -72.35758789 29.8109375 -71.86767578 29.29296875 C-54.76954974 11.28652262 -25.82066231 -14.50939433 0 0 Z " fill="#FBFBFC" transform="translate(547.30859375,518.18359375)"/>
<path d="M0 0 C31.94905903 -0.58206788 66.16280767 9.75232997 89.81640625 31.6015625 C95.48427029 37.07664205 101.43560081 42.87120162 105 50 C103.81094701 53.56715898 102.98737275 53.89759948 99.875 55.8125 C92.51105476 60.57056256 87.27332292 65.59860308 81.9921875 72.6328125 C79.87938305 75.14332132 77.6183192 77.03399562 75 79 C74.6690332 78.38705078 74.33806641 77.77410156 73.99707031 77.14257812 C56.70427944 45.31813023 36.85741121 24.65499136 6.26806641 5.47558594 C1.10550278 2.21100555 1.10550278 2.21100555 0 0 Z " fill="#FBFBFC" transform="translate(200,119)"/>
<path d="M0 0 C11.15410571 2.23557769 22.11503345 4.66170683 33 8 C33.13051758 8.70495605 33.26103516 9.40991211 33.39550781 10.13623047 C34.00313915 13.38455737 34.62646297 16.62969031 35.25 19.875 C35.45496094 20.98359375 35.65992188 22.0921875 35.87109375 23.234375 C37.56480558 31.95955714 39.54374491 40.72010836 45.375 47.6875 C45.97699219 48.41710937 46.57898438 49.14671875 47.19921875 49.8984375 C47.79347656 50.59195313 48.38773438 51.28546875 49 52 C49.54269531 52.65226563 50.08539063 53.30453125 50.64453125 53.9765625 C53.29620775 57.13172188 56.02626761 60.14064193 59 63 C47.51747401 64.10408904 36.91536866 57.7408885 28 51 C16.13997524 40.88361272 8.28601145 28.63499641 3 14 C2.68160156 13.15179687 2.36320313 12.30359375 2.03515625 11.4296875 C0.59929323 7.41985806 -0.14204694 4.29878897 0 0 Z " fill="#0C254A" transform="translate(171,615)"/>
</svg>
